Coordinates
version=1
nRows=32
nColumns=22
inDegrees=yes

Units are S.I. units (second, meters, Newtons, ...)
If the header above contains a line with 'inDegrees', this indicates whether rotational values are in degrees (yes) or radians (no).

endheader
time	pelvis_tilt	pelvis_list	pelvis_rotation	pelvis_tx	pelvis_ty	pelvis_tz	hip_flexion_r	hip_adduction_r	hip_rotation_r	knee_angle_r	ankle_angle_r	subtalar_angle_r	hip_flexion_l	hip_adduction_l	hip_rotation_l	knee_angle_l	ankle_angle_l	subtalar_angle_l	lumbar_extension	lumbar_bending	lumbar_rotation
      0.01000000	    -15.19691896	      3.69669661	    -20.32883102	     -1.35578025	      0.97261868	     -0.33246437	     21.23666686	      2.25685859	     -3.16785414	    -18.88942622	     18.74820737	     -5.06876847	     20.67247413	     -0.30461003	     -4.45965793	    -16.63342817	     18.86930377	     -3.86236298	      9.55627695	      2.85436218	      3.35534108
      0.02000000	    -15.21309704	      3.69164659	    -20.36789537	     -1.35572543	      0.97258961	     -0.33247789	     21.23788925	      2.27559286	     -3.14742263	    -18.86408338	     18.72612502	     -5.06433693	     20.66675205	     -0.32287580	     -4.48830545	    -16.60847833	     18.90765478	     -3.85686984	      9.58534911	      2.89869518	      3.35884695
      0.03000000	    -15.21135859	      3.69726746	    -20.38728656	     -1.35569705	      0.97256617	     -0.33257105	     21.23833596	      2.26613331	     -3.14347174	    -18.86158779	     18.72552713	     -5.06431543	     20.66696783	     -0.31403375	     -4.48952524	    -16.61318034	     18.90905512	     -3.85645973	      9.58895744	      2.92333345	      3.36018853
      0.04000000	    -15.23680368	      3.71860856	    -20.48935920	     -1.35572676	      0.97248966	     -0.33252856	     21.28634081	      2.28999903	     -3.01513165	    -18.87670547	     18.71658689	     -5.05615498	     20.68477391	     -0.33498363	     -4.60714892	    -16.60258847	     18.94698867	     -3.86331277	      9.62744963	      2.95408311	      3.46472370
      0.05000000	    -15.24391007	      3.75390570	    -20.55152117	     -1.35574287	      0.97242460	     -0.33259328	     21.33559397	      2.27053618	     -2.95677937	    -18.92006651	     18.72878077	     -5.05173003	     20.69670859	     -0.31627407	     -4.67971920	    -16.59397135	     18.95094188	     -3.87108719	      9.64634059	      2.95805010	      3.51636449
      0.06000000	    -15.24690880	      3.78268881	    -20.60938212	     -1.35574758	      0.97236751	     -0.33267699	     21.37902011	      2.25443167	     -2.89716149	    -18.96557182	     18.74130109	     -5.04631199	     20.70451251	     -0.29915739	     -4.74040178	    -16.58930016	     18.96030585	     -3.88269711	      9.65677693	      2.96587869	      3.57055840
      0.07000000	    -15.24307831	      3.80548714	    -20.66260387	     -1.35575264	      0.97232030	     -0.33277612	     21.41874943	      2.23884411	     -2.84644197	    -19.02086658	     18.75334380	     -5.04175543	     20.70927173	     -0.28429594	     -4.79879341	    -16.59381149	     18.97286139	     -3.89477643	      9.65315332	      2.97469631	      3.62815667
      0.08000000	    -15.23523581	      3.80710692	    -20.69224024	     -1.35575139	      0.97228948	     -0.33290767	     21.44402554	      2.23473254	     -2.81854917	    -19.07325221	     18.75486905	     -5.04137035	     20.70898343	     -0.27792990	     -4.80685577	    -16.60617072	     18.97790840	     -3.89805323	      9.63387462	      2.99879554	      3.64438490
      0.09000000	    -15.23233878	      3.82092774	    -20.74502028	     -1.35577398	      0.97223036	     -0.33299682	     21.48888220	      2.23062780	     -2.75810776	    -19.14157752	     18.77776923	     -5.03806390	     20.72592508	     -0.27651753	     -4.88547816	    -16.63594676	     19.01773206	     -3.91539629	      9.62349543	      3.00850976	      3.73378353
      0.10000000	    -15.22341694	      3.81242552	    -20.76084977	     -1.35579786	      0.97219890	     -0.33313311	     21.51295330	      2.23476033	     -2.72816992	    -19.19997923	     18.77771657	     -5.03808323	     20.73717160	     -0.27624317	     -4.87084033	    -16.67356484	     19.02143979	     -3.91816855	      9.59266142	      3.02957436	      3.76104649
      0.11000000	    -15.22866008	      3.80229995	    -20.78921370	     -1.35585117	      0.97212762	     -0.33324325	     21.55925100	      2.25080616	     -2.69141003	    -19.27144267	     18.79935257	     -5.03872056	     20.77558191	     -0.29417402	     -4.90682158	    -16.73789600	     19.07500295	     -3.93539025	      9.57438014	      3.05482063	      3.82636886
      0.12000000	    -15.21798142	      3.79138736	    -20.79342951	     -1.35589521	      0.97209816	     -0.33339722	     21.58169614	      2.25405456	     -2.66305030	    -19.32944591	     18.79895838	     -5.03989327	     20.79651612	     -0.29259159	     -4.87982024	    -16.79438172	     19.07885265	     -3.93845370	      9.53447559	      3.06886528	      3.85605852
      0.13000000	    -15.20579235	      3.77971706	    -20.79404015	     -1.35593998	      0.97206869	     -0.33356298	     21.60532529	      2.25493056	     -2.64353293	    -19.39310295	     18.80775149	     -5.04292203	     20.82137443	     -0.29195850	     -4.86382265	    -16.86166610	     19.09616481	     -3.94416435	      9.49028359	      3.07992442	      3.89140064
      0.14000000	    -15.18962292	      3.77162336	    -20.79040899	     -1.35597704	      0.97204771	     -0.33375161	     21.62601325	      2.24795333	     -2.62959493	    -19.45588679	     18.82058433	     -5.04667502	     20.84634983	     -0.28487206	     -4.85547887	    -16.93448180	     19.11645504	     -3.95062463	      9.44162745	      3.08577775	      3.92199980
      0.15000000	    -15.16747244	      3.76999532	    -20.78218823	     -1.35599220	      0.97202845	     -0.33396265	     21.64739158	      2.22657669	     -2.63722145	    -19.52957832	     18.85794399	     -5.05356733	     20.86925575	     -0.26960693	     -4.87660591	    -17.01009097	     19.15437215	     -3.96248228	      9.39037937	      3.08179929	      3.94708486
      0.16000000	    -15.14210218	      3.76707318	    -20.76787682	     -1.35601826	      0.97203276	     -0.33421017	     21.65550866	      2.20467790	     -2.62508983	    -19.58213602	     18.86286844	     -5.05487258	     20.88725807	     -0.24720364	     -4.85534676	    -17.08237554	     19.15571557	     -3.96493777	      9.32935636	      3.07803146	      3.97094907
      0.17000000	    -15.10618944	      3.76396738	    -20.74691339	     -1.35605121	      0.97204676	     -0.33449238	     21.66108233	      2.17345294	     -2.63217420	    -19.64852888	     18.87816377	     -5.05661512	     20.89991719	     -0.21806001	     -4.84083683	    -17.16034367	     19.16297387	     -3.96789884	      9.25252158	      3.06758943	      3.99038836
      0.18000000	    -15.04298156	      3.76362268	    -20.71249964	     -1.35602787	      0.97209038	     -0.33481520	     21.64386518	      2.11531087	     -2.69413509	    -19.72836967	     18.93659615	     -5.05577118	     20.87472733	     -0.16945219	     -4.83430722	    -17.21524334	     19.18182913	     -3.97265058	      9.15041720	      3.04252571	      3.99073340
      0.19000000	    -15.01325794	      3.75451604	    -20.68676697	     -1.35608438	      0.97210456	     -0.33512718	     21.64641965	      2.09201410	     -2.68660026	    -19.77879839	     18.93706538	     -5.05271095	     20.88799795	     -0.14401465	     -4.79555681	    -17.28063182	     19.17619802	     -3.97362295	      9.07253266	      3.03548517	      4.01970906
      0.20000000	    -14.95712102	      3.74997428	    -20.65069908	     -1.35611169	      0.97214050	     -0.33548732	     21.63950018	      2.03877544	     -2.75195979	    -19.85974070	     18.97819198	     -5.04200569	     20.86781335	     -0.09804219	     -4.76635394	    -17.32566615	     19.18712030	     -3.98076519	      8.96498114	      3.01407992	      4.02336207
      0.21000000	    -14.93421382	      3.73781558	    -20.61935275	     -1.35618129	      0.97214392	     -0.33580395	     21.65090255	      2.01990455	     -2.74598219	    -19.91676267	     18.97853196	     -5.03613504	     20.87979778	     -0.07705368	     -4.72815667	    -17.37264853	     19.18108500	     -3.98314166	      8.89440869	      3.00276254	      4.05715722
      0.22000000	    -14.89567846	      3.74694893	    -20.58575701	     -1.35622467	      0.97215153	     -0.33616237	     21.67292339	      1.96137352	     -2.80131921	    -20.00848690	     19.01559017	     -5.01299818	     20.86691654	     -0.02443282	     -4.70412468	    -17.38547142	     19.18299479	     -3.99682145	      8.81353329	      2.96602225	      4.08070922
      0.23000000	    -14.88270093	      3.74076117	    -20.56433332	     -1.35631483	      0.97214380	     -0.33648474	     21.70450510	      1.94178993	     -2.79518634	    -20.07563920	     19.01401380	     -5.00356960	     20.87576648	     -0.00302980	     -4.67789778	    -17.40200192	     19.17470903	     -4.00090327	      8.75025513	      2.95343802	      4.11776005
      0.24000000	    -14.86030631	      3.78360072	    -20.55072052	     -1.35636913	      0.97212530	     -0.33680961	     21.76341283	      1.86439178	     -2.82111391	    -20.17981455	     19.05111024	     -4.96675488	     20.86372643	      0.06882429	     -4.68934756	    -17.36620478	     19.15753740	     -4.02197055	      8.70217629	      2.88243016	      4.17499871
      0.25000000	    -14.84933769	      3.81541574	    -20.54575098	     -1.35644141	      0.97210197	     -0.33713370	     21.82620563	      1.80842824	     -2.81742335	    -20.27459101	     19.06756904	     -4.93298656	     20.85844307	      0.12304617	     -4.70406620	    -17.33114633	     19.13604155	     -4.04093719	      8.65924250	      2.83208707	      4.23999905
      0.26000000	    -14.84252741	      3.85146820	    -20.54505671	     -1.35652792	      0.97207351	     -0.33745280	     21.89674117	      1.75169399	     -2.81033061	    -20.37138778	     19.08415980	     -4.90399981	     20.85449462	      0.17682093	     -4.72966734	    -17.28735675	     19.11482082	     -4.05970016	      8.61875373	      2.77732615	      4.30174809
      0.27000000	    -14.84035578	      3.88728064	    -20.54302924	     -1.35660907	      0.97203780	     -0.33779762	     21.97061905	      1.69486928	     -2.80619916	    -20.46534501	     19.09698525	     -4.88095587	     20.85515802	      0.23025094	     -4.75880168	    -17.24491920	     19.09557627	     -4.07790434	      8.58299080	      2.73001977	      4.36158388
      0.28000000	    -14.84695897	      3.92362595	    -20.53853167	     -1.35671233	      0.97198693	     -0.33814714	     22.05282276	      1.64085641	     -2.80382849	    -20.55610737	     19.11225563	     -4.85998664	     20.86915965	      0.28026012	     -4.78734175	    -17.20833762	     19.07634933	     -4.09890379	      8.55231805	      2.68292923	      4.41208473
      0.29000000	    -14.85612937	      3.92244513	    -20.52387020	     -1.35682785	      0.97195317	     -0.33851421	     22.11051506	      1.62431779	     -2.80115533	    -20.62245451	     19.10869000	     -4.85474600	     20.88404738	      0.29648877	     -4.79066369	    -17.19145801	     19.07048519	     -4.10591292	      8.50364954	      2.67920310	      4.42718687
      0.30000000	    -14.89422856	      3.97241069	    -20.49602038	     -1.35694605	      0.97183453	     -0.33892694	     22.22724733	      1.55596887	     -2.83673065	    -20.70852027	     19.13298054	     -4.83581732	     20.95223587	      0.35710015	     -4.80398412	    -17.18327027	     19.05743465	     -4.14078271	      8.51119600	      2.62758216	      4.45954824
      0.31000000	    -14.96224761	      3.98445225	    -20.45002413	     -1.35712148	      0.97168841	     -0.33937094	     22.35124962	      1.53287310	     -2.88315178	    -20.77474608	     19.13463650	     -4.81652452	     21.06324149	      0.37633972	     -4.76427544	    -17.21638668	     19.05557635	     -4.18071930	      8.52638798	      2.62839856	      4.45593041
      0.32000000	    -14.97836443	      3.97274536	    -20.42744285	     -1.35727811	      0.97164403	     -0.33976796	     22.39739022	      1.52755998	     -2.87719546	    -20.80977076	     19.12840794	     -4.81540539	     21.10142945	      0.38459876	     -4.73999231	    -17.23184150	     19.05353421	     -4.18599489	      8.46928441	      2.63782676	      4.45966365
